<svg id="Layer_1" data-name="Layer 1" xmlns="http://www.w3.org/2000/svg" viewBox="0 0 50.77 38.73" height="50px" width="50px"><defs>
<style>.cls-1{fill:#72a0d0;}</style>
</defs><path class="cls-1" d="M13.23,23.67h0A11,11,0,0,0,8,25c.16-2.93,2.08-7.48,3.54-9.68a33.69,33.69,0,0,1,8.57-8.56A26.18,26.18,0,0,0,12.23,10a24.77,24.77,0,0,0-6.14,5.36,24,24,0,0,0-4,7A23.39,23.39,0,0,0,.66,30.56a18.7,18.7,0,0,0,.93,6.08,14.68,14.68,0,0,0,2.6,4.72,11.77,11.77,0,0,0,3.94,3.07,11.44,11.44,0,0,0,5,1.07h.14c.24,0,.47,0,.7,0h.13A10.91,10.91,0,0,0,24.15,34.58h0A10.91,10.91,0,0,0,13.23,23.67Z" transform="translate(-0.66 -6.77)"/><path class="cls-1" d="M40.51,23.67h0A11,11,0,0,0,35.25,25c.17-2.93,2.08-7.48,3.55-9.68a33.53,33.53,0,0,1,8.57-8.56A26,26,0,0,0,39.51,10a25,25,0,0,0-6.15,5.36,24.24,24.24,0,0,0-4,7,23.62,23.62,0,0,0-1.43,8.18,18.7,18.7,0,0,0,.93,6.08,14.7,14.7,0,0,0,2.61,4.72,11.73,11.73,0,0,0,3.93,3.07,11.48,11.48,0,0,0,5,1.07h.14c.23,0,.47,0,.7,0h.12a10.92,10.92,0,0,0,10.1-10.88h0A10.91,10.91,0,0,0,40.51,23.67Z" transform="translate(-0.66 -6.77)"/></svg>